<svg xmlns="http://www.w3.org/2000/svg" width="200" height="38" viewBox="0 0 200 38" fill="none"><g clip-path="url(#clip0_4200_14622)"><path d="M13.576 37.7351C10.8441 37.7351 8.4606 37.1405 6.42556 35.9464C4.39051 34.7523 2.81499 33.0846 1.68385 30.9382C0.557758 28.7919 -0.0078125 26.3029 -0.0078125 23.4713C-0.0078125 20.6397 0.572908 18.3321 1.73435 16.2361C2.89579 14.1401 4.49151 12.4774 6.52655 11.2531C8.55655 10.0237 10.8744 9.41406 13.4699 9.41406C15.6211 9.41406 17.5602 9.81714 19.2872 10.6132C21.0143 11.4143 22.4635 12.5379 23.6401 13.989C24.8167 15.44 25.6701 17.1229 26.2003 19.0526C26.7306 20.9773 26.8215 23.048 26.4831 25.265H3.99663L19.267 20.9168C19.1963 18.9065 18.6257 17.3294 17.5501 16.1857C16.4745 15.042 15.0657 14.4726 13.3235 14.4726C11.955 14.4726 10.7936 14.8203 9.83918 15.5206C8.88478 16.221 8.14752 17.2337 7.63749 18.5638C7.12747 19.894 6.86993 21.5315 6.86993 23.4713C6.86993 25.4111 7.12747 27.0083 7.63749 28.3535C8.14752 29.6988 8.89488 30.7165 9.86443 31.3967C10.834 32.0769 12.0257 32.4195 13.4245 32.4195C15.0303 32.4195 16.3685 32.0366 17.4491 31.2708C18.5247 30.5049 19.267 29.4065 19.6761 27.9756H26.4377C25.6853 31.044 24.1855 33.4373 21.9283 35.1604C19.6761 36.8836 16.8886 37.7401 13.576 37.7401V37.7351Z" fill="#05055D"></path><path d="M30.7109 23.5687C30.7109 20.8782 31.2058 18.4547 32.1956 16.3083C33.1853 14.162 34.5942 12.4741 36.4222 11.2447C38.2502 10.0153 40.3913 9.40568 42.8505 9.40568C44.4917 9.40568 46.0116 9.77348 47.4104 10.5041C48.8092 11.2397 50.006 12.2877 50.9957 13.648V0.507812H57.8129V37.2178H51.5108V33.1266C50.4857 34.5928 49.2283 35.7264 47.7437 36.5275C46.2591 37.3286 44.628 37.7317 42.8505 37.7317C40.3913 37.7317 38.2452 37.112 36.4222 35.8675C34.5942 34.623 33.1853 32.9301 32.1956 30.7787C31.2058 28.6323 30.7109 26.229 30.7109 23.5687ZM37.7301 23.5687C37.7301 26.1937 38.3714 28.194 39.654 29.5745C40.9367 30.955 42.497 31.6453 44.3402 31.6453C45.5723 31.6453 46.6883 31.3329 47.6983 30.6981C48.7032 30.0683 49.501 29.1462 50.0817 27.937C50.6625 26.7278 50.9553 25.2515 50.9553 23.5133C50.9553 21.775 50.6473 20.2585 50.0312 19.0643C49.4152 17.8702 48.6123 16.9784 47.6225 16.3789C46.6328 15.7843 45.537 15.482 44.3452 15.482C42.5021 15.482 40.9367 16.1622 39.6591 17.5276C38.3764 18.893 37.7351 20.9034 37.7351 23.5586L37.7301 23.5687Z" fill="#05055D"></path><path d="M80.969 25.765V9.91406H87.7862V37.2173H81.5346V33.5342C80.7822 34.7636 79.6914 35.7662 78.2573 36.5522C76.8232 37.3382 75.2325 37.7262 73.4904 37.7262C71.7482 37.7262 70.0565 37.3483 68.6224 36.6026C67.1883 35.8519 66.0672 34.7132 65.2643 33.1765C64.4614 31.6448 64.0625 29.7 64.0625 27.347V9.9191H70.8241V26.0219C70.8241 27.997 71.2786 29.438 72.1825 30.3399C73.0864 31.2417 74.2731 31.6952 75.7425 31.6952C76.6666 31.6952 77.5201 31.4584 78.3028 30.9797C79.0905 30.5011 79.7268 29.8209 80.2217 28.9341C80.7165 28.0474 80.964 26.9893 80.964 25.765H80.969Z" fill="#05055D"></path><path d="M103.621 37.2189H96.8038V15.7955H91.2188V9.91563H96.8038V8.38394C96.8038 5.69342 97.5309 3.62263 98.9802 2.17156C100.429 0.725534 102.56 0 105.358 0C106.211 0 106.999 0.070538 107.716 0.206576C108.433 0.342613 109.08 0.529035 109.665 0.77088V6.19223C109.287 6.02092 108.863 5.89496 108.383 5.80931C107.903 5.72365 107.428 5.68335 106.949 5.68335C105.959 5.68335 105.156 5.90504 104.54 6.34842C103.924 6.7918 103.616 7.52237 103.616 8.54517V9.9257H110.842V15.8056H103.616V37.2289L103.621 37.2189Z" fill="#05055D"></path><path d="M131.188 25.765V9.91406H138.005V37.2173H131.753V33.5342C131.001 34.7636 129.91 35.7662 128.476 36.5522C127.042 37.3382 125.451 37.7262 123.709 37.7262C121.967 37.7262 120.275 37.3483 118.841 36.6026C117.407 35.8519 116.286 34.7132 115.483 33.1765C114.68 31.6448 114.281 29.7 114.281 27.347V9.9191H121.043V26.0219C121.043 27.997 121.497 29.438 122.401 30.3399C123.305 31.2417 124.492 31.6952 125.961 31.6952C126.885 31.6952 127.739 31.4584 128.522 30.9797C129.309 30.5011 129.946 29.8209 130.44 28.9341C130.935 28.0474 131.183 26.9893 131.183 25.765H131.188Z" fill="#05055D"></path><path d="M151.277 22.2895V37.2184H144.516V9.92017H150.767V13.9056C151.757 12.5452 152.964 11.4519 154.378 10.6356C155.797 9.8194 157.408 9.40625 159.22 9.40625C161.988 9.40625 164.225 10.2829 165.932 12.0413C167.638 13.7998 168.492 16.3291 168.492 19.6343V37.2234H161.675V21.8864C161.675 19.8408 161.266 18.2638 160.443 17.1554C159.624 16.0469 158.377 15.4927 156.701 15.4927C155.711 15.4927 154.807 15.7496 153.984 16.2585C153.166 16.7724 152.504 17.5282 152.009 18.5359C151.515 19.5436 151.267 20.7931 151.267 22.2945L151.277 22.2895Z" fill="#05055D"></path><path d="M172.898 23.5687C172.898 20.8782 173.393 18.4547 174.383 16.3083C175.373 14.162 176.782 12.4741 178.61 11.2447C180.438 10.0153 182.579 9.40568 185.043 9.40568C186.684 9.40568 188.204 9.77348 189.603 10.5041C191.002 11.2397 192.199 12.2877 193.188 13.648V0.507812H200.005V37.2178H193.703V33.1266C192.678 34.5928 191.421 35.7264 189.936 36.5275C188.452 37.3286 186.821 37.7317 185.043 37.7317C182.584 37.7317 180.438 37.112 178.61 35.8675C176.782 34.623 175.373 32.9301 174.383 30.7787C173.393 28.6323 172.898 26.229 172.898 23.5687ZM179.918 23.5687C179.918 26.1937 180.559 28.194 181.836 29.5745C183.119 30.955 184.679 31.6453 186.523 31.6453C187.755 31.6453 188.871 31.3329 189.881 30.6981C190.886 30.0683 191.683 29.1462 192.264 27.937C192.845 26.7278 193.133 25.2515 193.133 23.5133C193.133 21.775 192.825 20.2585 192.209 19.0643C191.593 17.8702 190.79 16.9784 189.8 16.3789C188.81 15.7843 187.714 15.482 186.523 15.482C184.679 15.482 183.114 16.1622 181.836 17.5276C180.554 18.893 179.918 20.9034 179.918 23.5586V23.5687Z" fill="#05055D"></path></g><defs><clipPath id="clip0_4200_14622"><rect width="200" height="37.7328" fill="white"></rect></clipPath></defs></svg>